<?xml version="1.0" encoding="UTF-8"?>
<!-- Created with Grafika (https://www.grafika.cc/) -->
<svg xmlns="http://www.w3.org/2000/svg" xmlns:svg="http://www.w3.org/2000/svg" xmlns:xlink="http://www.w3.org/1999/xlink" width="512" height="512" viewBox="0 0 512 512" preserveAspectRatio="xMidYMid meet">
	<defs>
		<linearGradient id="gradient_1" gradientUnits="userSpaceOnUse" spreadMethod="pad" gradientTransform="matrix(76.8000030517578, 256, -256, 76.8000030517578, -179.199996948242, 0)" x1="-1" y1="0" x2="1" y2="0">
			<stop offset="0%" stop-color="#1E2335" stop-opacity="1" />
			<stop offset="100%" stop-color="#0D0F14" stop-opacity="1" />
		</linearGradient>
	</defs>
	<rect x="0" y="0" width="512" height="512" rx="115" ry="115" id="Rectangle 1" style="fill:url(#gradient_1);" />
	<g id="Group">
		<path transform="matrix(4.97230615372469, -0.00434349300043753, 0.00434349300043754, 4.97230615372469, 152.903382439133, 255.976045938301)" d="M-1.17 -27.44 C0.62 -24.6 2.28 -22.93 2.54 -22.56 L10.06 -13.13 Q15.34 -5.96 15.34 2.34 Q15.34 9.67 10.75 15.58 L8.45 15.58 Q11.24 9.38 11.24 3.47 Q11.24 -2.34 8.45 -6.25 Q5.67 -10.16 2.54 -10.64 L2.54 14.06 Q2.54 20.07 -1.04 23.75 Q-4.63 27.44 -9.86 27.44 Q-12.64 27.44 -14.06 26.1 Q-15.47 24.76 -15.47 22.56 Q-15.47 18.75 -12.42 15.94 Q-9.37 13.13 -5.56 13.13 Q-3.46 13.13 -1.17 14.06 C-1.17 0.23 -1.17 -27.44 -1.17 -27.44 Z" id="Path" style="fill:#52B788;" />
		<path transform="matrix(3.3822476487721, -0.0142706895549847, 0.0142706895549848, 3.3822476487721, 349.142349477195, 255.976341630654)" d="M4.48 36.57 Q-6.21 36.57 -13.37 31.88 Q-20.52 27.2 -24.11 19.04 Q-27.7 10.89 -27.7 0.54 L-27.7 -0.49 Q-27.7 -10.94 -23.94 -19.07 Q-20.18 -27.2 -13.15 -31.88 Q-6.12 -36.57 3.65 -36.57 Q10.53 -36.57 16.25 -34.42 Q21.96 -32.28 25.72 -28.96 L25.72 -13.62 L18.05 -13.62 L17.03 -24.85 Q15.47 -26.07 13.44 -26.9 Q11.41 -27.73 8.95 -28.17 Q6.48 -28.61 3.6 -28.61 Q-3.38 -28.61 -8.22 -25.02 Q-13.05 -21.44 -15.54 -15.14 Q-18.03 -8.84 -18.03 -0.59 L-18.03 0.54 Q-18.03 9.47 -15.37 15.8 Q-12.71 22.12 -7.61 25.44 Q-2.5 28.76 4.82 28.76 Q8.24 28.76 11.51 27.93 Q14.78 27.1 16.93 25.78 L18 15.87 L25.52 15.87 L25.52 31.3 Q21.52 33.79 15.95 35.18 Q10.39 36.57 4.48 36.57 L4.48 36.57 Z" id="Path 1" style="fill:#52B788;" />
	</g>
</svg>